<svg width="417" height="112" viewBox="0 0 417 112" fill="none" xmlns="http://www.w3.org/2000/svg">
<circle cx="2" cy="2" r="2" fill="#FFEFE8" fill-opacity="0.4"/>
<circle cx="14" cy="2" r="2" fill="#FFEFE8" fill-opacity="0.4"/>
<circle cx="26" cy="2" r="2" fill="#FFEFE8" fill-opacity="0.4"/>
<circle cx="38" cy="2" r="2" fill="#FFEFE8" fill-opacity="0.4"/>
<circle cx="50" cy="2" r="2" fill="#FFEFE8" fill-opacity="0.4"/>
<circle cx="62" cy="2" r="2" fill="#FFEFE8" fill-opacity="0.4"/>
<circle cx="74" cy="2" r="2" fill="#FFEFE8" fill-opacity="0.4"/>
<circle cx="86" cy="2" r="2" fill="#FFEFE8" fill-opacity="0.4"/>
<circle cx="98" cy="2" r="2" fill="#FFEFE8" fill-opacity="0.4"/>
<circle cx="110" cy="2" r="2" fill="#FFEFE8" fill-opacity="0.4"/>
<circle cx="122" cy="2" r="2" fill="#FFEFE8" fill-opacity="0.4"/>
<circle cx="134" cy="2" r="2" fill="#FFEFE8" fill-opacity="0.4"/>
<circle cx="146" cy="2" r="2" fill="#FFEFE8" fill-opacity="0.4"/>
<circle cx="158" cy="2" r="2" fill="#FFEFE8" fill-opacity="0.4"/>
<circle cx="170" cy="2" r="2" fill="#FFEFE8" fill-opacity="0.4"/>
<circle cx="182" cy="2" r="2" fill="#FFEFE8" fill-opacity="0.4"/>
<circle cx="194" cy="2" r="2" fill="#FFEFE8" fill-opacity="0.4"/>
<circle cx="206" cy="2" r="2" fill="#FFEFE8" fill-opacity="0.4"/>
<circle cx="218" cy="2" r="2" fill="#FFEFE8" fill-opacity="0.4"/>
<circle cx="230" cy="2" r="2" fill="#FFEFE8" fill-opacity="0.4"/>
<circle cx="242" cy="2" r="2" fill="#FFEFE8" fill-opacity="0.4"/>
<circle cx="254" cy="2" r="2" fill="#FFEFE8" fill-opacity="0.4"/>
<circle cx="266" cy="2" r="2" fill="#FFEFE8" fill-opacity="0.4"/>
<circle cx="278" cy="2" r="2" fill="#FFEFE8" fill-opacity="0.4"/>
<circle cx="290" cy="2" r="2" fill="#FFEFE8" fill-opacity="0.4"/>
<circle cx="302" cy="2" r="2" fill="#FFEFE8" fill-opacity="0.4"/>
<circle cx="314" cy="2" r="2" fill="#FFEFE8" fill-opacity="0.4"/>
<circle cx="326" cy="2" r="2" fill="#FFEFE8" fill-opacity="0.4"/>
<circle cx="338" cy="2" r="2" fill="#FFEFE8" fill-opacity="0.4"/>
<circle cx="350" cy="2" r="2" fill="#FFEFE8" fill-opacity="0.4"/>
<circle cx="362" cy="2" r="2" fill="#FFEFE8" fill-opacity="0.4"/>
<circle cx="374" cy="2" r="2" fill="#FFEFE8" fill-opacity="0.4"/>
<circle cx="386" cy="2" r="2" fill="#FFEFE8" fill-opacity="0.4"/>
<circle cx="398" cy="2" r="2" fill="#FFEFE8" fill-opacity="0.4"/>
<circle cx="410" cy="2" r="2" fill="#FFEFE8" fill-opacity="0.4"/>
<circle cx="2" cy="14" r="2" fill="#FFEFE8" fill-opacity="0.4"/>
<circle cx="14" cy="14" r="2" fill="#FFEFE8" fill-opacity="0.4"/>
<circle cx="26" cy="14" r="2" fill="#FFEFE8" fill-opacity="0.4"/>
<circle cx="38" cy="14" r="2" fill="#FFEFE8" fill-opacity="0.4"/>
<circle cx="50" cy="14" r="2" fill="#FFEFE8" fill-opacity="0.4"/>
<circle cx="62" cy="14" r="2" fill="#FFEFE8" fill-opacity="0.4"/>
<circle cx="74" cy="14" r="2" fill="#FFEFE8" fill-opacity="0.4"/>
<circle cx="86" cy="14" r="2" fill="#FFEFE8" fill-opacity="0.4"/>
<circle cx="98" cy="14" r="2" fill="#FFEFE8" fill-opacity="0.4"/>
<circle cx="110" cy="14" r="2" fill="#FFEFE8" fill-opacity="0.4"/>
<circle cx="122" cy="14" r="2" fill="#FFEFE8" fill-opacity="0.4"/>
<circle cx="134" cy="14" r="2" fill="#FFEFE8" fill-opacity="0.4"/>
<circle cx="146" cy="14" r="2" fill="#FFEFE8" fill-opacity="0.4"/>
<circle cx="158" cy="14" r="2" fill="#FFEFE8" fill-opacity="0.4"/>
<circle cx="170" cy="14" r="2" fill="#FFEFE8" fill-opacity="0.4"/>
<circle cx="182" cy="14" r="2" fill="#FFEFE8" fill-opacity="0.4"/>
<circle cx="194" cy="14" r="2" fill="#FFEFE8" fill-opacity="0.4"/>
<circle cx="206" cy="14" r="2" fill="#FFEFE8" fill-opacity="0.4"/>
<circle cx="218" cy="14" r="2" fill="#FFEFE8" fill-opacity="0.4"/>
<circle cx="230" cy="14" r="2" fill="#FFEFE8" fill-opacity="0.4"/>
<circle cx="242" cy="14" r="2" fill="#FFEFE8" fill-opacity="0.4"/>
<circle cx="254" cy="14" r="2" fill="#FFEFE8" fill-opacity="0.4"/>
<circle cx="266" cy="14" r="2" fill="#FFEFE8" fill-opacity="0.4"/>
<circle cx="278" cy="14" r="2" fill="#FFEFE8" fill-opacity="0.4"/>
<circle cx="290" cy="14" r="2" fill="#FFEFE8" fill-opacity="0.4"/>
<circle cx="302" cy="14" r="2" fill="#FFEFE8" fill-opacity="0.4"/>
<circle cx="314" cy="14" r="2" fill="#FFEFE8" fill-opacity="0.4"/>
<circle cx="326" cy="14" r="2" fill="#FFEFE8" fill-opacity="0.4"/>
<circle cx="338" cy="14" r="2" fill="#FFEFE8" fill-opacity="0.4"/>
<circle cx="350" cy="14" r="2" fill="#FFEFE8" fill-opacity="0.4"/>
<circle cx="362" cy="14" r="2" fill="#FFEFE8" fill-opacity="0.4"/>
<circle cx="374" cy="14" r="2" fill="#FFEFE8" fill-opacity="0.4"/>
<circle cx="386" cy="14" r="2" fill="#FFEFE8" fill-opacity="0.4"/>
<circle cx="398" cy="14" r="2" fill="#FFEFE8" fill-opacity="0.4"/>
<circle cx="410" cy="14" r="2" fill="#FFEFE8" fill-opacity="0.4"/>
<circle cx="2" cy="26" r="2" fill="#FFEFE8" fill-opacity="0.4"/>
<circle cx="14" cy="26" r="2" fill="#FFEFE8" fill-opacity="0.4"/>
<circle cx="26" cy="26" r="2" fill="#FFEFE8" fill-opacity="0.4"/>
<circle cx="38" cy="26" r="2" fill="#FFEFE8" fill-opacity="0.4"/>
<circle cx="50" cy="26" r="2" fill="#FFEFE8" fill-opacity="0.4"/>
<circle cx="62" cy="26" r="2" fill="#FFEFE8" fill-opacity="0.4"/>
<circle cx="74" cy="26" r="2" fill="#FFEFE8" fill-opacity="0.4"/>
<circle cx="86" cy="26" r="2" fill="#FFEFE8" fill-opacity="0.4"/>
<circle cx="98" cy="26" r="2" fill="#FFEFE8" fill-opacity="0.4"/>
<circle cx="110" cy="26" r="2" fill="#FFEFE8" fill-opacity="0.4"/>
<circle cx="122" cy="26" r="2" fill="#FFEFE8" fill-opacity="0.4"/>
<circle cx="134" cy="26" r="2" fill="#FFEFE8" fill-opacity="0.4"/>
<circle cx="146" cy="26" r="2" fill="#FFEFE8" fill-opacity="0.4"/>
<circle cx="158" cy="26" r="2" fill="#FFEFE8" fill-opacity="0.4"/>
<circle cx="170" cy="26" r="2" fill="#FFEFE8" fill-opacity="0.4"/>
<circle cx="182" cy="26" r="2" fill="#FFEFE8" fill-opacity="0.4"/>
<circle cx="194" cy="26" r="2" fill="#FFEFE8" fill-opacity="0.4"/>
<circle cx="206" cy="26" r="2" fill="#FFEFE8" fill-opacity="0.4"/>
<circle cx="218" cy="26" r="2" fill="#FFEFE8" fill-opacity="0.4"/>
<circle cx="230" cy="26" r="2" fill="#FFEFE8" fill-opacity="0.4"/>
<circle cx="242" cy="26" r="2" fill="#FFEFE8" fill-opacity="0.4"/>
<circle cx="254" cy="26" r="2" fill="#FFEFE8" fill-opacity="0.4"/>
<circle cx="266" cy="26" r="2" fill="#FFEFE8" fill-opacity="0.4"/>
<circle cx="278" cy="26" r="2" fill="#FFEFE8" fill-opacity="0.4"/>
<circle cx="290" cy="26" r="2" fill="#FFEFE8" fill-opacity="0.4"/>
<circle cx="302" cy="26" r="2" fill="#FFEFE8" fill-opacity="0.4"/>
<circle cx="314" cy="26" r="2" fill="#FFEFE8" fill-opacity="0.4"/>
<circle cx="326" cy="26" r="2" fill="#FFEFE8" fill-opacity="0.4"/>
<circle cx="338" cy="26" r="2" fill="#FFEFE8" fill-opacity="0.4"/>
<circle cx="350" cy="26" r="2" fill="#FFEFE8" fill-opacity="0.4"/>
<circle cx="362" cy="26" r="2" fill="#FFEFE8" fill-opacity="0.4"/>
<circle cx="374" cy="26" r="2" fill="#FFEFE8" fill-opacity="0.4"/>
<circle cx="386" cy="26" r="2" fill="#FFEFE8" fill-opacity="0.4"/>
<circle cx="398" cy="26" r="2" fill="#FFEFE8" fill-opacity="0.4"/>
<circle cx="410" cy="26" r="2" fill="#FFEFE8" fill-opacity="0.4"/>
<circle cx="2" cy="38" r="2" fill="#FFEFE8" fill-opacity="0.4"/>
<circle cx="14" cy="38" r="2" fill="#FFEFE8" fill-opacity="0.4"/>
<circle cx="26" cy="38" r="2" fill="#FFEFE8" fill-opacity="0.4"/>
<circle cx="38" cy="38" r="2" fill="#FFEFE8" fill-opacity="0.4"/>
<circle cx="50" cy="38" r="2" fill="#FFEFE8" fill-opacity="0.4"/>
<circle cx="62" cy="38" r="2" fill="#FFEFE8" fill-opacity="0.4"/>
<circle cx="74" cy="38" r="2" fill="#FFEFE8" fill-opacity="0.4"/>
<circle cx="86" cy="38" r="2" fill="#FFEFE8" fill-opacity="0.4"/>
<circle cx="98" cy="38" r="2" fill="#FFEFE8" fill-opacity="0.4"/>
<circle cx="110" cy="38" r="2" fill="#FFEFE8" fill-opacity="0.4"/>
<circle cx="122" cy="38" r="2" fill="#FFEFE8" fill-opacity="0.4"/>
<circle cx="134" cy="38" r="2" fill="#FFEFE8" fill-opacity="0.4"/>
<circle cx="146" cy="38" r="2" fill="#FFEFE8" fill-opacity="0.4"/>
<circle cx="158" cy="38" r="2" fill="#FFEFE8" fill-opacity="0.4"/>
<circle cx="170" cy="38" r="2" fill="#FFEFE8" fill-opacity="0.4"/>
<circle cx="182" cy="38" r="2" fill="#FFEFE8" fill-opacity="0.4"/>
<circle cx="194" cy="38" r="2" fill="#FFEFE8" fill-opacity="0.4"/>
<circle cx="206" cy="38" r="2" fill="#FFEFE8" fill-opacity="0.4"/>
<circle cx="218" cy="38" r="2" fill="#FFEFE8" fill-opacity="0.4"/>
<circle cx="230" cy="38" r="2" fill="#FFEFE8" fill-opacity="0.4"/>
<circle cx="242" cy="38" r="2" fill="#FFEFE8" fill-opacity="0.4"/>
<circle cx="254" cy="38" r="2" fill="#FFEFE8" fill-opacity="0.4"/>
<circle cx="266" cy="38" r="2" fill="#FFEFE8" fill-opacity="0.4"/>
<circle cx="278" cy="38" r="2" fill="#FFEFE8" fill-opacity="0.4"/>
<circle cx="290" cy="38" r="2" fill="#FFEFE8" fill-opacity="0.4"/>
<circle cx="302" cy="38" r="2" fill="#FFEFE8" fill-opacity="0.4"/>
<circle cx="314" cy="38" r="2" fill="#FFEFE8" fill-opacity="0.4"/>
<circle cx="326" cy="38" r="2" fill="#FFEFE8" fill-opacity="0.4"/>
<circle cx="338" cy="38" r="2" fill="#FFEFE8" fill-opacity="0.4"/>
<circle cx="350" cy="38" r="2" fill="#FFEFE8" fill-opacity="0.4"/>
<circle cx="362" cy="38" r="2" fill="#FFEFE8" fill-opacity="0.4"/>
<circle cx="374" cy="38" r="2" fill="#FFEFE8" fill-opacity="0.4"/>
<circle cx="386" cy="38" r="2" fill="#FFEFE8" fill-opacity="0.4"/>
<circle cx="398" cy="38" r="2" fill="#FFEFE8" fill-opacity="0.4"/>
<circle cx="410" cy="38" r="2" fill="#FFEFE8" fill-opacity="0.4"/>
<circle cx="2" cy="50" r="2" fill="#FFEFE8" fill-opacity="0.4"/>
<circle cx="14" cy="50" r="2" fill="#FFEFE8" fill-opacity="0.4"/>
<circle cx="26" cy="50" r="2" fill="#FFEFE8" fill-opacity="0.4"/>
<circle cx="38" cy="50" r="2" fill="#FFEFE8" fill-opacity="0.4"/>
<circle cx="50" cy="50" r="2" fill="#FFEFE8" fill-opacity="0.4"/>
<circle cx="62" cy="50" r="2" fill="#FFEFE8" fill-opacity="0.4"/>
<circle cx="74" cy="50" r="2" fill="#FFEFE8" fill-opacity="0.4"/>
<circle cx="86" cy="50" r="2" fill="#FFEFE8" fill-opacity="0.4"/>
<circle cx="98" cy="50" r="2" fill="#FFEFE8" fill-opacity="0.4"/>
<circle cx="110" cy="50" r="2" fill="#FFEFE8" fill-opacity="0.4"/>
<circle cx="122" cy="50" r="2" fill="#FFEFE8" fill-opacity="0.4"/>
<circle cx="134" cy="50" r="2" fill="#FFEFE8" fill-opacity="0.4"/>
<circle cx="146" cy="50" r="2" fill="#FFEFE8" fill-opacity="0.4"/>
<circle cx="158" cy="50" r="2" fill="#FFEFE8" fill-opacity="0.4"/>
<circle cx="170" cy="50" r="2" fill="#FFEFE8" fill-opacity="0.4"/>
<circle cx="182" cy="50" r="2" fill="#FFEFE8" fill-opacity="0.4"/>
<circle cx="194" cy="50" r="2" fill="#FFEFE8" fill-opacity="0.4"/>
<circle cx="206" cy="50" r="2" fill="#FFEFE8" fill-opacity="0.4"/>
<circle cx="218" cy="50" r="2" fill="#FFEFE8" fill-opacity="0.4"/>
<circle cx="230" cy="50" r="2" fill="#FFEFE8" fill-opacity="0.4"/>
<circle cx="242" cy="50" r="2" fill="#FFEFE8" fill-opacity="0.4"/>
<circle cx="254" cy="50" r="2" fill="#FFEFE8" fill-opacity="0.4"/>
<circle cx="266" cy="50" r="2" fill="#FFEFE8" fill-opacity="0.4"/>
<circle cx="278" cy="50" r="2" fill="#FFEFE8" fill-opacity="0.4"/>
<circle cx="290" cy="50" r="2" fill="#FFEFE8" fill-opacity="0.4"/>
<circle cx="302" cy="50" r="2" fill="#FFEFE8" fill-opacity="0.4"/>
<circle cx="314" cy="50" r="2" fill="#FFEFE8" fill-opacity="0.4"/>
<circle cx="326" cy="50" r="2" fill="#FFEFE8" fill-opacity="0.4"/>
<circle cx="338" cy="50" r="2" fill="#FFEFE8" fill-opacity="0.4"/>
<circle cx="350" cy="50" r="2" fill="#FFEFE8" fill-opacity="0.4"/>
<circle cx="362" cy="50" r="2" fill="#FFEFE8" fill-opacity="0.4"/>
<circle cx="374" cy="50" r="2" fill="#FFEFE8" fill-opacity="0.4"/>
<circle cx="386" cy="50" r="2" fill="#FFEFE8" fill-opacity="0.4"/>
<circle cx="398" cy="50" r="2" fill="#FFEFE8" fill-opacity="0.4"/>
<circle cx="410" cy="50" r="2" fill="#FFEFE8" fill-opacity="0.4"/>
<circle cx="2" cy="62" r="2" fill="#FFEFE8" fill-opacity="0.4"/>
<circle cx="14" cy="62" r="2" fill="#FFEFE8" fill-opacity="0.4"/>
<circle cx="26" cy="62" r="2" fill="#FFEFE8" fill-opacity="0.4"/>
<circle cx="38" cy="62" r="2" fill="#FFEFE8" fill-opacity="0.4"/>
<circle cx="50" cy="62" r="2" fill="#FFEFE8" fill-opacity="0.4"/>
<circle cx="62" cy="62" r="2" fill="#FFEFE8" fill-opacity="0.4"/>
<circle cx="74" cy="62" r="2" fill="#FFEFE8" fill-opacity="0.4"/>
<circle cx="86" cy="62" r="2" fill="#FFEFE8" fill-opacity="0.4"/>
<circle cx="98" cy="62" r="2" fill="#FFEFE8" fill-opacity="0.4"/>
<circle cx="110" cy="62" r="2" fill="#FFEFE8" fill-opacity="0.4"/>
<circle cx="122" cy="62" r="2" fill="#FFEFE8" fill-opacity="0.4"/>
<circle cx="134" cy="62" r="2" fill="#FFEFE8" fill-opacity="0.4"/>
<circle cx="146" cy="62" r="2" fill="#FFEFE8" fill-opacity="0.4"/>
<circle cx="158" cy="62" r="2" fill="#FFEFE8" fill-opacity="0.4"/>
<circle cx="170" cy="62" r="2" fill="#FFEFE8" fill-opacity="0.4"/>
<circle cx="182" cy="62" r="2" fill="#FFEFE8" fill-opacity="0.4"/>
<circle cx="194" cy="62" r="2" fill="#FFEFE8" fill-opacity="0.4"/>
<circle cx="206" cy="62" r="2" fill="#FFEFE8" fill-opacity="0.4"/>
<circle cx="218" cy="62" r="2" fill="#FFEFE8" fill-opacity="0.4"/>
<circle cx="230" cy="62" r="2" fill="#FFEFE8" fill-opacity="0.4"/>
<circle cx="242" cy="62" r="2" fill="#FFEFE8" fill-opacity="0.4"/>
<circle cx="254" cy="62" r="2" fill="#FFEFE8" fill-opacity="0.4"/>
<circle cx="266" cy="62" r="2" fill="#FFEFE8" fill-opacity="0.4"/>
<circle cx="278" cy="62" r="2" fill="#FFEFE8" fill-opacity="0.4"/>
<circle cx="290" cy="62" r="2" fill="#FFEFE8" fill-opacity="0.4"/>
<circle cx="302" cy="62" r="2" fill="#FFEFE8" fill-opacity="0.4"/>
<circle cx="314" cy="62" r="2" fill="#FFEFE8" fill-opacity="0.4"/>
<circle cx="326" cy="62" r="2" fill="#FFEFE8" fill-opacity="0.4"/>
<circle cx="338" cy="62" r="2" fill="#FFEFE8" fill-opacity="0.4"/>
<circle cx="350" cy="62" r="2" fill="#FFEFE8" fill-opacity="0.4"/>
<circle cx="362" cy="62" r="2" fill="#FFEFE8" fill-opacity="0.4"/>
<circle cx="374" cy="62" r="2" fill="#FFEFE8" fill-opacity="0.4"/>
<circle cx="386" cy="62" r="2" fill="#FFEFE8" fill-opacity="0.4"/>
<circle cx="398" cy="62" r="2" fill="#FFEFE8" fill-opacity="0.4"/>
<circle cx="410" cy="62" r="2" fill="#FFEFE8" fill-opacity="0.4"/>
<circle cx="2" cy="74" r="2" fill="#FFEFE8" fill-opacity="0.4"/>
<circle cx="14" cy="74" r="2" fill="#FFEFE8" fill-opacity="0.4"/>
<circle cx="26" cy="74" r="2" fill="#FFEFE8" fill-opacity="0.4"/>
<circle cx="38" cy="74" r="2" fill="#FFEFE8" fill-opacity="0.4"/>
<circle cx="50" cy="74" r="2" fill="#FFEFE8" fill-opacity="0.4"/>
<circle cx="62" cy="74" r="2" fill="#FFEFE8" fill-opacity="0.4"/>
<circle cx="74" cy="74" r="2" fill="#FFEFE8" fill-opacity="0.4"/>
<circle cx="86" cy="74" r="2" fill="#FFEFE8" fill-opacity="0.4"/>
<circle cx="98" cy="74" r="2" fill="#FFEFE8" fill-opacity="0.4"/>
<circle cx="110" cy="74" r="2" fill="#FFEFE8" fill-opacity="0.4"/>
<circle cx="122" cy="74" r="2" fill="#FFEFE8" fill-opacity="0.4"/>
<circle cx="134" cy="74" r="2" fill="#FFEFE8" fill-opacity="0.4"/>
<circle cx="146" cy="74" r="2" fill="#FFEFE8" fill-opacity="0.4"/>
<circle cx="158" cy="74" r="2" fill="#FFEFE8" fill-opacity="0.4"/>
<circle cx="170" cy="74" r="2" fill="#FFEFE8" fill-opacity="0.4"/>
<circle cx="182" cy="74" r="2" fill="#FFEFE8" fill-opacity="0.4"/>
<circle cx="194" cy="74" r="2" fill="#FFEFE8" fill-opacity="0.4"/>
<circle cx="206" cy="74" r="2" fill="#FFEFE8" fill-opacity="0.4"/>
<circle cx="218" cy="74" r="2" fill="#FFEFE8" fill-opacity="0.4"/>
<circle cx="230" cy="74" r="2" fill="#FFEFE8" fill-opacity="0.4"/>
<circle cx="242" cy="74" r="2" fill="#FFEFE8" fill-opacity="0.4"/>
<circle cx="254" cy="74" r="2" fill="#FFEFE8" fill-opacity="0.4"/>
<circle cx="266" cy="74" r="2" fill="#FFEFE8" fill-opacity="0.4"/>
<circle cx="278" cy="74" r="2" fill="#FFEFE8" fill-opacity="0.4"/>
<circle cx="290" cy="74" r="2" fill="#FFEFE8" fill-opacity="0.4"/>
<circle cx="302" cy="74" r="2" fill="#FFEFE8" fill-opacity="0.4"/>
<circle cx="314" cy="74" r="2" fill="#FFEFE8" fill-opacity="0.4"/>
<circle cx="326" cy="74" r="2" fill="#FFEFE8" fill-opacity="0.4"/>
<circle cx="338" cy="74" r="2" fill="#FFEFE8" fill-opacity="0.4"/>
<circle cx="350" cy="74" r="2" fill="#FFEFE8" fill-opacity="0.4"/>
<circle cx="362" cy="74" r="2" fill="#FFEFE8" fill-opacity="0.4"/>
<circle cx="374" cy="74" r="2" fill="#FFEFE8" fill-opacity="0.4"/>
<circle cx="386" cy="74" r="2" fill="#FFEFE8" fill-opacity="0.4"/>
<circle cx="398" cy="74" r="2" fill="#FFEFE8" fill-opacity="0.4"/>
<circle cx="410" cy="74" r="2" fill="#FFEFE8" fill-opacity="0.4"/>
<circle cx="2" cy="86" r="2" fill="#FFEFE8" fill-opacity="0.4"/>
<circle cx="14" cy="86" r="2" fill="#FFEFE8" fill-opacity="0.4"/>
<circle cx="26" cy="86" r="2" fill="#FFEFE8" fill-opacity="0.4"/>
<circle cx="38" cy="86" r="2" fill="#FFEFE8" fill-opacity="0.4"/>
<circle cx="50" cy="86" r="2" fill="#FFEFE8" fill-opacity="0.4"/>
<circle cx="62" cy="86" r="2" fill="#FFEFE8" fill-opacity="0.4"/>
<circle cx="74" cy="86" r="2" fill="#FFEFE8" fill-opacity="0.4"/>
<circle cx="86" cy="86" r="2" fill="#FFEFE8" fill-opacity="0.4"/>
<circle cx="98" cy="86" r="2" fill="#FFEFE8" fill-opacity="0.4"/>
<circle cx="110" cy="86" r="2" fill="#FFEFE8" fill-opacity="0.4"/>
<circle cx="122" cy="86" r="2" fill="#FFEFE8" fill-opacity="0.4"/>
<circle cx="134" cy="86" r="2" fill="#FFEFE8" fill-opacity="0.4"/>
<circle cx="146" cy="86" r="2" fill="#FFEFE8" fill-opacity="0.4"/>
<circle cx="158" cy="86" r="2" fill="#FFEFE8" fill-opacity="0.4"/>
<circle cx="170" cy="86" r="2" fill="#FFEFE8" fill-opacity="0.4"/>
<circle cx="182" cy="86" r="2" fill="#FFEFE8" fill-opacity="0.4"/>
<circle cx="194" cy="86" r="2" fill="#FFEFE8" fill-opacity="0.4"/>
<circle cx="206" cy="86" r="2" fill="#FFEFE8" fill-opacity="0.4"/>
<circle cx="218" cy="86" r="2" fill="#FFEFE8" fill-opacity="0.4"/>
<circle cx="230" cy="86" r="2" fill="#FFEFE8" fill-opacity="0.4"/>
<circle cx="242" cy="86" r="2" fill="#FFEFE8" fill-opacity="0.4"/>
<circle cx="254" cy="86" r="2" fill="#FFEFE8" fill-opacity="0.4"/>
<circle cx="266" cy="86" r="2" fill="#FFEFE8" fill-opacity="0.4"/>
<circle cx="278" cy="86" r="2" fill="#FFEFE8" fill-opacity="0.4"/>
<circle cx="290" cy="86" r="2" fill="#FFEFE8" fill-opacity="0.4"/>
<circle cx="302" cy="86" r="2" fill="#FFEFE8" fill-opacity="0.4"/>
<circle cx="314" cy="86" r="2" fill="#FFEFE8" fill-opacity="0.4"/>
<circle cx="326" cy="86" r="2" fill="#FFEFE8" fill-opacity="0.4"/>
<circle cx="338" cy="86" r="2" fill="#FFEFE8" fill-opacity="0.4"/>
<circle cx="350" cy="86" r="2" fill="#FFEFE8" fill-opacity="0.4"/>
<circle cx="362" cy="86" r="2" fill="#FFEFE8" fill-opacity="0.4"/>
<circle cx="374" cy="86" r="2" fill="#FFEFE8" fill-opacity="0.4"/>
<circle cx="386" cy="86" r="2" fill="#FFEFE8" fill-opacity="0.4"/>
<circle cx="398" cy="86" r="2" fill="#FFEFE8" fill-opacity="0.4"/>
<circle cx="410" cy="86" r="2" fill="#FFEFE8" fill-opacity="0.4"/>
<circle cx="2" cy="98" r="2" fill="#FFEFE8" fill-opacity="0.4"/>
<circle cx="14" cy="98" r="2" fill="#FFEFE8" fill-opacity="0.4"/>
<circle cx="26" cy="98" r="2" fill="#FFEFE8" fill-opacity="0.4"/>
<circle cx="38" cy="98" r="2" fill="#FFEFE8" fill-opacity="0.4"/>
<circle cx="50" cy="98" r="2" fill="#FFEFE8" fill-opacity="0.4"/>
<circle cx="62" cy="98" r="2" fill="#FFEFE8" fill-opacity="0.4"/>
<circle cx="74" cy="98" r="2" fill="#FFEFE8" fill-opacity="0.4"/>
<circle cx="86" cy="98" r="2" fill="#FFEFE8" fill-opacity="0.4"/>
<circle cx="98" cy="98" r="2" fill="#FFEFE8" fill-opacity="0.4"/>
<circle cx="110" cy="98" r="2" fill="#FFEFE8" fill-opacity="0.4"/>
<circle cx="122" cy="98" r="2" fill="#FFEFE8" fill-opacity="0.4"/>
<circle cx="134" cy="98" r="2" fill="#FFEFE8" fill-opacity="0.4"/>
<circle cx="146" cy="98" r="2" fill="#FFEFE8" fill-opacity="0.4"/>
<circle cx="158" cy="98" r="2" fill="#FFEFE8" fill-opacity="0.4"/>
<circle cx="170" cy="98" r="2" fill="#FFEFE8" fill-opacity="0.4"/>
<circle cx="182" cy="98" r="2" fill="#FFEFE8" fill-opacity="0.4"/>
<circle cx="194" cy="98" r="2" fill="#FFEFE8" fill-opacity="0.4"/>
<circle cx="206" cy="98" r="2" fill="#FFEFE8" fill-opacity="0.4"/>
<circle cx="218" cy="98" r="2" fill="#FFEFE8" fill-opacity="0.4"/>
<circle cx="230" cy="98" r="2" fill="#FFEFE8" fill-opacity="0.4"/>
<circle cx="242" cy="98" r="2" fill="#FFEFE8" fill-opacity="0.4"/>
<circle cx="254" cy="98" r="2" fill="#FFEFE8" fill-opacity="0.4"/>
<circle cx="266" cy="98" r="2" fill="#FFEFE8" fill-opacity="0.4"/>
<circle cx="278" cy="98" r="2" fill="#FFEFE8" fill-opacity="0.4"/>
<circle cx="290" cy="98" r="2" fill="#FFEFE8" fill-opacity="0.4"/>
<circle cx="302" cy="98" r="2" fill="#FFEFE8" fill-opacity="0.4"/>
<circle cx="314" cy="98" r="2" fill="#FFEFE8" fill-opacity="0.4"/>
<circle cx="326" cy="98" r="2" fill="#FFEFE8" fill-opacity="0.4"/>
<circle cx="338" cy="98" r="2" fill="#FFEFE8" fill-opacity="0.4"/>
<circle cx="350" cy="98" r="2" fill="#FFEFE8" fill-opacity="0.4"/>
<circle cx="362" cy="98" r="2" fill="#FFEFE8" fill-opacity="0.4"/>
<circle cx="374" cy="98" r="2" fill="#FFEFE8" fill-opacity="0.4"/>
<circle cx="386" cy="98" r="2" fill="#FFEFE8" fill-opacity="0.4"/>
<circle cx="398" cy="98" r="2" fill="#FFEFE8" fill-opacity="0.4"/>
<circle cx="410" cy="98" r="2" fill="#FFEFE8" fill-opacity="0.4"/>
<circle cx="2" cy="110" r="2" fill="#FFEFE8" fill-opacity="0.4"/>
<circle cx="14" cy="110" r="2" fill="#FFEFE8" fill-opacity="0.4"/>
<circle cx="26" cy="110" r="2" fill="#FFEFE8" fill-opacity="0.4"/>
<circle cx="38" cy="110" r="2" fill="#FFEFE8" fill-opacity="0.4"/>
<circle cx="50" cy="110" r="2" fill="#FFEFE8" fill-opacity="0.4"/>
<circle cx="62" cy="110" r="2" fill="#FFEFE8" fill-opacity="0.4"/>
<circle cx="74" cy="110" r="2" fill="#FFEFE8" fill-opacity="0.4"/>
<circle cx="86" cy="110" r="2" fill="#FFEFE8" fill-opacity="0.4"/>
<circle cx="98" cy="110" r="2" fill="#FFEFE8" fill-opacity="0.4"/>
<circle cx="110" cy="110" r="2" fill="#FFEFE8" fill-opacity="0.4"/>
<circle cx="122" cy="110" r="2" fill="#FFEFE8" fill-opacity="0.4"/>
<circle cx="134" cy="110" r="2" fill="#FFEFE8" fill-opacity="0.4"/>
<circle cx="146" cy="110" r="2" fill="#FFEFE8" fill-opacity="0.4"/>
<circle cx="158" cy="110" r="2" fill="#FFEFE8" fill-opacity="0.4"/>
<circle cx="170" cy="110" r="2" fill="#FFEFE8" fill-opacity="0.4"/>
<circle cx="182" cy="110" r="2" fill="#FFEFE8" fill-opacity="0.4"/>
<circle cx="194" cy="110" r="2" fill="#FFEFE8" fill-opacity="0.4"/>
<circle cx="206" cy="110" r="2" fill="#FFEFE8" fill-opacity="0.4"/>
<circle cx="218" cy="110" r="2" fill="#FFEFE8" fill-opacity="0.4"/>
<circle cx="230" cy="110" r="2" fill="#FFEFE8" fill-opacity="0.4"/>
<circle cx="242" cy="110" r="2" fill="#FFEFE8" fill-opacity="0.4"/>
<circle cx="254" cy="110" r="2" fill="#FFEFE8" fill-opacity="0.4"/>
<circle cx="266" cy="110" r="2" fill="#FFEFE8" fill-opacity="0.4"/>
<circle cx="278" cy="110" r="2" fill="#FFEFE8" fill-opacity="0.4"/>
<circle cx="290" cy="110" r="2" fill="#FFEFE8" fill-opacity="0.4"/>
<circle cx="302" cy="110" r="2" fill="#FFEFE8" fill-opacity="0.4"/>
<circle cx="314" cy="110" r="2" fill="#FFEFE8" fill-opacity="0.4"/>
<circle cx="326" cy="110" r="2" fill="#FFEFE8" fill-opacity="0.4"/>
<circle cx="338" cy="110" r="2" fill="#FFEFE8" fill-opacity="0.4"/>
<circle cx="350" cy="110" r="2" fill="#FFEFE8" fill-opacity="0.4"/>
<circle cx="362" cy="110" r="2" fill="#FFEFE8" fill-opacity="0.4"/>
<circle cx="374" cy="110" r="2" fill="#FFEFE8" fill-opacity="0.4"/>
<circle cx="386" cy="110" r="2" fill="#FFEFE8" fill-opacity="0.4"/>
<circle cx="398" cy="110" r="2" fill="#FFEFE8" fill-opacity="0.4"/>
<circle cx="410" cy="110" r="2" fill="#FFEFE8" fill-opacity="0.4"/>
</svg>
